<?xml version="1.0" encoding="UTF-8"?><svg id="uuid-c2e3d3a2-9a0d-463e-92d8-18a07f3092a5" xmlns="http://www.w3.org/2000/svg" viewBox="0 0 500 500"><path d="m395.54,101.82c-7.94-17.99-91.53-42.86-91.53-42.86-7.69,6.48-20.05,14.89-36.99,19.14-2.34.59-8.58,2.05-17.02,2.56-8.44-.51-14.68-1.97-17.02-2.56-16.94-4.25-29.31-12.66-36.99-19.14,0,0-83.6,24.87-91.53,42.86-18.82,42.65-26.98,86.77-53.44,323.28,6.98,3.8,17.38,8.47,30.69,11.11,12.64,2.51,23.51,2.31,31.22,1.59l28.57-212.17s-4.76,193.61-7.41,203.7c-1.35,5.17,39.39,8.16,43.35,8.51,22.11,1.99,44.3,3.05,66.5,3.19,34.27.21,68.9-1.32,102.82-6.28,4.28-.6,8.58-1.24,12.79-2.24,1.55-.37,5.24-.86,6.17-2.44.17-.28.21-.41.21-.74-2.65-10.05-7.41-203.7-7.41-203.7l28.57,212.17c7.7.73,18.57.92,31.22-1.59,13.31-2.64,23.71-7.31,30.69-11.11-26.46-236.51-34.62-280.63-53.44-323.28Z"  stroke="#000" stroke-miterlimit="10" stroke-width="2"/></svg>