<?xml version="1.0" encoding="UTF-8"?><svg id="uuid-57d03607-3c00-4083-8d83-cd5639773310" xmlns="http://www.w3.org/2000/svg" viewBox="0 0 500 500"><path d="m365.91,429.33c0,.32-.03.45-.2.73-.94,1.58-4.62,2.07-6.17,2.44-4.21,1-8.51,1.65-12.79,2.24-33.92,4.97-68.55,6.49-102.82,6.28-22.19-.13-44.39-1.19-66.49-3.18-3.96-.36-44.71-3.35-43.35-8.51,2.07-7.91,5.44-128.56,6.8-180.37.23-8.71.4-15.47.51-19.43,9.21-16.57,23.53-47.34,23.77-78.92.29-38.65-5.04-63.31-9.96-77.75,21.14-8.06,40.78-13.9,40.78-13.9,7.69,6.48,20.05,14.89,36.99,19.14,2.34.59,8.58,2.05,17.02,2.56,8.44-.51,14.68-1.97,17.02-2.56,16.94-4.25,29.3-12.66,36.99-19.14,0,0,19.52,5.81,40.59,13.83-4.92,14.43-10.27,39.11-9.98,77.82.25,31.83,14.79,62.83,23.99,79.3.11,4.03.27,10.71.5,19.24,1.37,51.91,4.73,172.31,6.8,180.18Z" stroke="#000" stroke-miterlimit="10" stroke-width="2"/></svg>