<?xml version="1.0" encoding="UTF-8"?><svg id="uuid-f63be11a-8fb9-4d9a-b55d-475c2a3d6c43" xmlns="http://www.w3.org/2000/svg" viewBox="0 0 500 500"><path d="m361.71,249.37l-3.2-23.75s.22,9.13.6,23.53c1.37,51.91,4.73,172.31,6.8,180.18,0,.32-.03.45-.2.73-.94,1.58-4.62,2.07-6.17,2.44-4.21,1-8.51,1.65-12.79,2.24-33.92,4.97-68.55,6.49-102.82,6.28-22.19-.13-44.39-1.19-66.49-3.18-3.96-.36-44.71-3.35-43.35-8.51,2.07-7.91,5.44-128.56,6.8-180.37.38-14.29.6-23.34.6-23.34l-3.18,23.6c-28.91,2.58-51.82-7.66-64.28-15.11,10.8-77.44,18.46-105.16,30.43-132.29,7.93-17.99,91.53-42.86,91.53-42.86,7.69,6.48,20.05,14.89,36.99,19.14,2.34.59,8.58,2.05,17.02,2.56,8.44-.51,14.68-1.97,17.02-2.56,16.94-4.25,29.3-12.66,36.99-19.14,0,0,83.6,24.87,91.53,42.86,11.92,27.01,19.57,54.61,30.29,131.29-11.78,7.34-34.75,18.36-64.12,16.26Z"  stroke="#000" stroke-miterlimit="10" stroke-width="2"/></svg>